<?xml version="1.0" encoding="UTF-8"?><svg id="Livello_1" xmlns="http://www.w3.org/2000/svg" viewBox="0 0 1207.58 1341.97"><path d="m968.63,123.77v-12.37h182.17v12.37c-12.65,0-25.98,1.77-39.97,5.35-14.47,2.53-33.73,24.47-46.74,48.24h-59.59c13.06-32.46,9.37-56.5-35.87-53.58Z" stroke-width="0"/><path d="m1106.04,1150.22c-22.2-46.49-33.31-72.47-33.31-77.97L639.86,0h-21.82l-73.94,186.53c1.29,1.24,2.38,2.81,3.14,4.74,7.12,17.95,18.83,33.43,28.11,50.16l6.19-15.56,164.05,413.76h-310.65L248.07,176.47c-10.08-28.59-7.53-58.68,32.17-55.23v-12.37H0v12.37c20.86,0,41.21,6.46,60.98,19.37,19.8,12.93,45.04,57.03,75.84,132.29l432.32,1069.08h15.66l74.11-184.78-32.57-49.52-1.29,3.24-176.49-437.46h313.31l173.68,431.08c.56,0,1.37,2.76,2.48,8.26,1.65,4.94,3.57,8.52,5.78,10.7,18.12,46.35,39.24,95.69-19.8,96.45v12.37h283.56v-12.37c-45.5,0-79.34-23.22-101.54-69.7Z" stroke-width="0"/><path d="m251.52,1216.15v12.37H69.35v-12.37c12.65,0,25.96-1.77,39.97-5.35,14.47-2.53,33.73-24.47,46.74-48.24h59.59c-13.09,32.44-9.35,56.54,35.87,53.58Z" stroke-width="0"/></svg>